<svg xmlns="http://www.w3.org/2000/svg" viewBox="0 0 100 100" width="100" height="100">
  <path d="M50,10 a40,40 0 0,1 0,80 a40,40 0 0,1 0,-80" fill="none" stroke="black" stroke-width="10"/>
  <path d="M50,30 a20,20 0 0,1 0,40 a20,20 0 0,1 0,-40" fill="none" stroke="black" stroke-width="10"/>
  <g transform="translate(50,50)">
    <g transform="rotate(0)">
      <rect x="-7.5" y="-47.5" width="15" height="15" fill="black"/>
    </g>
    <g transform="rotate(45)">
      <rect x="-7.5" y="-47.5" width="15" height="15" fill="black"/>
    </g>
    <g transform="rotate(90)">
      <rect x="-7.5" y="-47.5" width="15" height="15" fill="black"/>
    </g>
    <g transform="rotate(135)">
      <rect x="-7.5" y="-47.5" width="15" height="15" fill="black"/>
    </g>
    <g transform="rotate(180)">
      <rect x="-7.5" y="-47.5" width="15" height="15" fill="black"/>
    </g>
    <g transform="rotate(225)">
      <rect x="-7.5" y="-47.5" width="15" height="15" fill="black"/>
    </g>
    <g transform="rotate(270)">
      <rect x="-7.5" y="-47.5" width="15" height="15" fill="black"/>
    </g>
    <g transform="rotate(315)">
      <rect x="-7.5" y="-47.5" width="15" height="15" fill="black"/>
    </g>
  </g>
</svg>
